<svg width="25" height="24" viewBox="0 0 25 24" fill="none" xmlns="http://www.w3.org/2000/svg">
<g clip-path="url(#clip0_30_231)">
<path d="M12.0294 0C8.7703 0 8.36164 0.0138282 7.08172 0.0722347C5.80446 0.130501 4.93211 0.333329 4.1688 0.630002C3.3797 0.93666 2.71047 1.34701 2.04338 2.01413C1.37626 2.68121 0.96591 3.35045 0.659252 4.13955C0.362579 4.90282 0.15975 5.77516 0.101484 7.05242C0.0430782 8.33235 0.0292969 8.741 0.0292969 12C0.0292969 15.259 0.0430782 15.6677 0.101484 16.9476C0.15975 18.2248 0.362579 19.0972 0.659252 19.8605C0.96591 20.6495 1.37626 21.3188 2.04338 21.986C2.71047 22.653 3.3797 23.0634 4.1688 23.37C4.93211 23.6667 5.80446 23.8695 7.08172 23.9278C8.36164 23.9862 8.7703 24 12.0294 24C15.2883 24 15.697 23.9862 16.9769 23.9278C18.2541 23.8695 19.1265 23.6667 19.8898 23.37C20.6789 23.0634 21.3481 22.653 22.0153 21.986C22.6824 21.3188 23.0927 20.6495 23.3994 19.8605C23.696 19.0972 23.8989 18.2248 23.9571 16.9476C24.0155 15.6677 24.0293 15.259 24.0293 12C24.0293 8.741 24.0155 8.33235 23.9571 7.05242C23.8989 5.77516 23.696 4.90282 23.3994 4.13955C23.0927 3.35045 22.6824 2.68121 22.0153 2.01413C21.3481 1.34701 20.6789 0.93666 19.8898 0.630002C19.1265 0.333329 18.2541 0.130501 16.9769 0.0722347C15.697 0.0138282 15.2883 0 12.0294 0ZM12.0294 2.16221C15.2335 2.16221 15.613 2.1744 16.8784 2.23215C18.0483 2.28554 18.6837 2.48101 19.1066 2.64531C19.6667 2.863 20.0664 3.12306 20.4863 3.54297C20.9063 3.96288 21.1663 4.36267 21.384 4.92274C21.5483 5.3456 21.7438 5.98099 21.7972 7.15095C21.8549 8.41635 21.8671 8.79589 21.8671 12C21.8671 15.2042 21.8549 15.5837 21.7972 16.8491C21.7438 18.019 21.5483 18.6544 21.384 19.0773C21.1663 19.6374 20.9063 20.0371 20.4863 20.457C20.0664 20.877 19.6667 21.137 19.1066 21.3547C18.6837 21.519 18.0483 21.7145 16.8784 21.7679C15.6132 21.8256 15.2337 21.8378 12.0294 21.8378C8.82491 21.8378 8.4455 21.8256 7.18025 21.7679C6.01029 21.7145 5.3749 21.519 4.95204 21.3547C4.39193 21.137 3.99217 20.877 3.57222 20.457C3.15231 20.0371 2.89225 19.6374 2.67461 19.0773C2.51026 18.6544 2.31479 18.019 2.2614 16.8491C2.20365 15.5837 2.19146 15.2042 2.19146 12C2.19146 8.79589 2.20365 8.41635 2.2614 7.15095C2.31479 5.98099 2.51026 5.3456 2.67461 4.92274C2.89225 4.36267 3.15231 3.96288 3.57222 3.54297C3.99217 3.12306 4.39193 2.863 4.95204 2.64531C5.3749 2.48101 6.01029 2.28554 7.18025 2.23215C8.44564 2.1744 8.82519 2.16221 12.0294 2.16221Z" fill="white"/>
<path d="M12.0294 16.0003C9.82022 16.0003 8.02935 14.2094 8.02935 12.0003C8.02935 9.79118 9.82022 8.00031 12.0294 8.00031C14.2385 8.00031 16.0294 9.79118 16.0294 12.0003C16.0294 14.2094 14.2385 16.0003 12.0294 16.0003ZM12.0294 5.83813C8.62607 5.83813 5.86719 8.59703 5.86719 12.0003C5.86719 15.4036 8.62607 18.1625 12.0294 18.1625C15.4326 18.1625 18.1915 15.4036 18.1915 12.0003C18.1915 8.59703 15.4326 5.83813 12.0294 5.83813Z" fill="white"/>
<path d="M19.8732 5.5945C19.8732 6.38983 19.2285 7.03451 18.4332 7.03451C17.6379 7.03451 16.9932 6.38983 16.9932 5.5945C16.9932 4.79922 17.6379 4.15454 18.4332 4.15454C19.2285 4.15454 19.8732 4.79922 19.8732 5.5945Z" fill="white"/>
</g>
<defs>
<clipPath id="clip0_30_231">
<rect width="25" height="24" fill="white"/>
</clipPath>
</defs>
</svg>
