<svg width="29" height="29" viewBox="0 0 29 29" fill="none" xmlns="http://www.w3.org/2000/svg">
<path d="M26.7592 3.80013C26.3242 3.43125 25.6409 3.37847 24.9345 3.66209H24.9333C24.1904 3.96021 3.90197 12.6625 3.07605 13.0181C2.92583 13.0703 1.61387 13.5598 1.74901 14.6502C1.86965 15.6333 2.92409 16.0405 3.05285 16.0874L8.21079 17.8535C8.55299 18.9927 9.81449 23.1953 10.0935 24.0932C10.2675 24.6529 10.5511 25.3883 11.0481 25.5397C11.4843 25.7079 11.9181 25.5542 12.1989 25.3338L15.3523 22.4089L20.443 26.379L20.5642 26.4515C20.9099 26.6046 21.2411 26.6811 21.5572 26.6811C21.8013 26.6811 22.0357 26.6353 22.2595 26.5437C23.0222 26.2305 23.3273 25.5037 23.3592 25.4214L27.1617 5.65671C27.3937 4.60111 27.0712 4.06403 26.7592 3.80013ZM12.7597 18.56L11.0197 23.2L9.27973 17.4L22.6197 7.53997L12.7597 18.56Z" fill="white"/>
</svg>
