<svg width="32" height="22" viewBox="0 0 32 22" fill="none" xmlns="http://www.w3.org/2000/svg">
<g clip-path="url(#clip0_30_229)">
<path fill-rule="evenodd" clip-rule="evenodd" d="M29.6495 1.96885C30.1222 2.45937 30.458 3.06676 30.6228 3.72968C31.0631 6.18628 31.2768 8.67857 31.2612 11.1748C31.27 13.6336 31.0563 16.0882 30.6228 18.5081C30.458 19.171 30.1222 19.7784 29.6495 20.2689C29.1768 20.7594 28.5838 21.1157 27.9305 21.3017C25.5434 21.9443 15.9953 21.9443 15.9953 21.9443C15.9953 21.9443 6.4471 21.9443 4.06006 21.3017C3.42003 21.1255 2.83599 20.7861 2.36435 20.3163C1.89272 19.8465 1.54945 19.2622 1.3677 18.6198C0.927444 16.1632 0.713736 13.671 0.729309 11.1748C0.717146 8.69723 0.930839 6.22379 1.3677 3.78556C1.53256 3.12264 1.86831 2.51524 2.34104 2.02473C2.81378 1.53421 3.40675 1.17794 4.06006 0.991905C6.4471 0.349365 15.9953 0.349365 15.9953 0.349365C15.9953 0.349365 25.5434 0.349365 27.9305 0.936032C28.5838 1.12207 29.1768 1.47834 29.6495 1.96885ZM20.8519 11.1746L12.872 15.7422V6.60695L20.8519 11.1746Z" fill="white"/>
</g>
<defs>
<clipPath id="clip0_30_229">
<rect width="32" height="22" fill="white"/>
</clipPath>
</defs>
</svg>
